<svg width="25" height="24" viewBox="0 0 25 24" fill="none" xmlns="http://www.w3.org/2000/svg">
<path fill-rule="evenodd" clip-rule="evenodd" d="M11.375 3.75C7.43997 3.75 4.25 6.93997 4.25 10.875C4.25 14.81 7.43997 18 11.375 18C15.31 18 18.5 14.81 18.5 10.875C18.5 6.93997 15.31 3.75 11.375 3.75ZM2.75 10.875C2.75 6.11154 6.61154 2.25 11.375 2.25C16.1385 2.25 20 6.11154 20 10.875C20 15.6385 16.1385 19.5 11.375 19.5C6.61154 19.5 2.75 15.6385 2.75 10.875Z" fill="white"/>
<path fill-rule="evenodd" clip-rule="evenodd" d="M16.413 15.913C16.7059 15.6201 17.1808 15.6201 17.4737 15.913L22.0299 20.4693C22.3228 20.7622 22.3228 21.237 22.0299 21.5299C21.737 21.8228 21.2622 21.8228 20.9693 21.5299L16.413 16.9737C16.1201 16.6808 16.1201 16.2059 16.413 15.913Z" fill="white"/>
</svg>
